<svg xmlns="http://www.w3.org/2000/svg" xmlns:xlink="http://www.w3.org/1999/xlink" version="1.1" baseProfile="basic" id="Layer_1" width="276px" height="82px" x="0px" y="0px" viewBox="0 0 276 82" xml:space="preserve">
<g id="USD_-_Main_-_Horiz_00000143615560432542620250000016713118923996667276_">
	<g>
		<defs fill="#000000">
			<rect id="SVGID_1_" x="1.9" y="0.9" width="272.4" height="80.3" fill="#000000"/>
		</defs>
		<clipPath id="SVGID_00000139994338295320019190000008698689273065889708_" fill="#000000">
			<use xlink:href="#SVGID_1_" overflow="visible" fill="#000000"/>
		</clipPath>
		<g clip-path="url(#SVGID_00000139994338295320019190000008698689273065889708_)">
			<defs fill="#000000">
				<rect id="SVGID_00000091704388348886106550000009025568946247080838_" x="1.9" y="0.9" width="272.4" height="80.3" fill="#000000"/>
			</defs>
			<clipPath id="SVGID_00000183208494163292547580000016697868211460937605_" fill="#000000">
				<use xlink:href="#SVGID_00000091704388348886106550000009025568946247080838_" overflow="visible" fill="#000000"/>
			</clipPath>
			<path clip-path="url(#SVGID_00000183208494163292547580000016697868211460937605_)" fill="#D21533" d="M50.2,70.4h-22v-3.2h7.7     l9.6-9.6V45L28.2,30.9v-3.5h22V70.4z M61,26.1l-9.6-9.5H17.4v5.5l-4.8-3.9v-6.6h22.1v2.8h10.8v-4.1l-9.6-9.5H11.4l-9.5,9.5v12.9     L17.4,36v18.2h10.8v-9.4l6.5,5.3v6.3H12.7V50H1.9v7.5l9.5,9.6h6v14h6.7v0h27.2c0,0,8.7-8.7,9.6-9.6C61,70.7,61,26.1,61,26.1"/>
			<path clip-path="url(#SVGID_00000183208494163292547580000016697868211460937605_)" fill="#ffffff" d="M75.6,37.2     c0,1.7,0.1,2.1,0.4,2.6c0.4,0.6,1.2,1,2.2,1c0.8,0,1.5-0.3,2-0.7c0.4-0.4,0.5-1,0.5-2.2v-4c0-1.1,0-1.3-0.1-1.4     c-0.1-0.2-0.3-0.2-1-0.2v-0.3h2.8v0.3c-0.7,0-0.8,0-1,0.2c-0.1,0.1-0.1,0.3-0.1,1.4v4c0,1.5-0.2,2.3-0.7,2.8     c-0.6,0.7-1.6,1-2.9,1c-1.3,0-2.3-0.3-2.9-1c-0.5-0.6-0.6-1.2-0.6-2.8v-4c0-1.1,0-1.3-0.1-1.4c-0.1-0.2-0.3-0.2-1-0.2v-0.3h3.6     v0.3c-0.7,0-0.8,0-1,0.2c-0.1,0.1-0.1,0.3-0.1,1.4V37.2z"/>
			<path clip-path="url(#SVGID_00000183208494163292547580000016697868211460937605_)" fill="#ffffff" d="M95.3,41.5l-5.5-6.8     l-0.4-0.5c-0.1-0.1-0.2-0.3-0.5-0.7v0.3v0.5V35v4.5c0,1.1,0,1.3,0.1,1.4c0.1,0.2,0.3,0.2,1,0.2v0.3h-2.8V41c0.7,0,0.8,0,1-0.2     c0.1-0.1,0.1-0.3,0.1-1.4v-6.6l-0.4-0.5c-0.2-0.2-0.3-0.3-0.8-0.3v-0.3h2.2l4.6,5.7c0.3,0.4,0.5,0.6,0.7,0.9     c0.1,0.2,0.2,0.2,0.4,0.5c0-0.9,0-1.4,0-1.5v-3.5c0-1.1,0-1.3-0.1-1.4c-0.1-0.2-0.3-0.2-1-0.2v-0.3h2.8v0.3c-0.7,0-0.8,0-1,0.2     c-0.1,0.1-0.1,0.3-0.1,1.4v7.8H95.3z"/>
			<path clip-path="url(#SVGID_00000183208494163292547580000016697868211460937605_)" fill="#ffffff" d="M104.2,39.4     c0,1.1,0,1.3,0.1,1.4c0.1,0.2,0.3,0.2,1,0.2v0.3h-3.6V41c0.7,0,0.8,0,1-0.2c0.1-0.1,0.1-0.3,0.1-1.4v-5.7c0-1.1,0-1.3-0.1-1.4     c-0.1-0.2-0.3-0.2-1-0.2v-0.3h3.6v0.3c-0.7,0-0.8,0-1,0.2c-0.1,0.1-0.1,0.3-0.1,1.4V39.4z"/>
			<path clip-path="url(#SVGID_00000183208494163292547580000016697868211460937605_)" fill="#ffffff" d="M114.6,41.7l-3.3-7.9     c-0.5-1.1-0.5-1.2-0.7-1.4c-0.2-0.1-0.3-0.2-0.7-0.2v-0.3h3.5v0.3c-0.7,0-1,0.1-1,0.4c0,0.1,0.1,0.5,0.4,1.1l1.9,4.7     c0.1,0.2,0.2,0.5,0.2,0.6c0.1,0.2,0.1,0.2,0.2,0.4c0.1-0.2,0.2-0.4,0.4-1l1.8-4.7c0.1-0.2,0.1-0.4,0.2-0.5     c0.1-0.3,0.2-0.4,0.2-0.6c0-0.3-0.2-0.4-0.9-0.4v-0.3h2.6v0.3c-0.5,0-0.7,0.1-0.8,0.3c-0.1,0.2-0.2,0.3-0.6,1.3l-3.2,7.9H114.6z"/>
			<path clip-path="url(#SVGID_00000183208494163292547580000016697868211460937605_)" fill="#ffffff" d="M130.8,33.8l-0.3,0     c-0.4-1.3-0.7-1.5-2.5-1.5h-1.5v3.7h1.4c1.3,0,1.5-0.2,1.6-1.3h0.3v3.2h-0.3c-0.2-1.2-0.2-1.3-1.7-1.3h-1.3v4.1h2     c1.7,0,2.2-0.3,2.7-1.8l0.3,0l-0.6,2.3h-7V41c0.7,0,0.8,0,1-0.2c0.1-0.1,0.1-0.3,0.1-1.4v-5.7c0-1.1,0-1.3-0.1-1.4     c-0.1-0.2-0.3-0.2-1-0.2v-0.3h6.8L130.8,33.8z"/>
			<path clip-path="url(#SVGID_00000183208494163292547580000016697868211460937605_)" fill="#ffffff" d="M139.1,36.8     c0.3,0,0.4,0,0.7,0c1.5,0,2.5-0.9,2.5-2.3c0-1.5-0.9-2.3-2.5-2.3h-0.6V36.8z M139.1,39.4c0,1.1,0,1.3,0.1,1.4     c0.1,0.2,0.3,0.2,1,0.2v0.3h-3.6V41c0.7,0,0.8,0,1-0.2c0.1-0.1,0.1-0.3,0.1-1.4v-5.7c0-1.1,0-1.3-0.1-1.4c-0.1-0.2-0.3-0.2-1-0.2     v-0.3h3.8c1.2,0,2,0.2,2.6,0.7c0.5,0.4,0.8,1.1,0.8,1.9c0,0.8-0.3,1.5-0.9,2c-0.4,0.3-0.7,0.5-1.4,0.7c0.2,0.2,0.3,0.3,0.9,1     l1.6,2.2c0.6,0.7,0.7,0.8,1.4,0.9v0.3h-2.2l-2.2-2.9c-0.7-0.9-0.7-0.9-0.9-1c-0.1-0.1-0.3-0.1-0.5-0.1h-0.5V39.4z"/>
			<path clip-path="url(#SVGID_00000183208494163292547580000016697868211460937605_)" fill="#ffffff" d="M155.3,34.3     c-0.2-0.7-0.3-1-0.6-1.3c-0.4-0.5-1.1-0.7-1.8-0.7c-1,0-1.6,0.5-1.6,1.4c0,0.6,0.3,1,1.3,1.5l1.6,0.9c1.4,0.8,2,1.5,2,2.7     c0,1.7-1.3,2.9-3.1,2.9c-0.6,0-0.8,0-1.9-0.4c-0.2,0-0.3-0.1-0.4-0.1c-0.2,0-0.3,0.1-0.8,0.5v-3.4h0.3c0.4,1.7,1.3,2.6,2.8,2.6     c1.1,0,1.8-0.7,1.8-1.6c0-0.8-0.4-1.1-1.7-1.9l-1.3-0.7c-1.4-0.8-1.9-1.4-1.9-2.5c0-1.4,1.2-2.4,2.8-2.4c0.4,0,0.7,0.1,1.2,0.2     c0.7,0.2,0.7,0.2,0.9,0.2c0.2,0,0.4,0,0.8-0.2v2.5H155.3z"/>
			<path clip-path="url(#SVGID_00000183208494163292547580000016697868211460937605_)" fill="#ffffff" d="M164,39.4     c0,1.1,0,1.3,0.1,1.4c0.1,0.2,0.3,0.2,1,0.2v0.3h-3.6V41c0.7,0,0.8,0,1-0.2c0.1-0.1,0.1-0.3,0.1-1.4v-5.7c0-1.1,0-1.3-0.1-1.4     c-0.1-0.2-0.3-0.2-1-0.2v-0.3h3.6v0.3c-0.7,0-0.8,0-1,0.2c-0.1,0.1-0.1,0.3-0.1,1.4V39.4z"/>
			<path clip-path="url(#SVGID_00000183208494163292547580000016697868211460937605_)" fill="#ffffff" d="M174.5,39.4     c0,1.1,0,1.3,0.1,1.4c0.1,0.2,0.3,0.2,1,0.2v0.3H172V41c0.7,0,0.8,0,1-0.2c0.1-0.1,0.1-0.3,0.1-1.4v-7.1c-2.3,0-2.8,0.3-3,1.9     h-0.3l0.1-2.5c0.3,0,1.2,0,2.8,0h3c0.2,0,1.7,0,2.2,0l-0.1,2.5h-0.3c-0.1-1.7-0.4-1.9-2.5-1.9h-0.3V39.4z"/>
			<path clip-path="url(#SVGID_00000183208494163292547580000016697868211460937605_)" fill="#ffffff" d="M182.1,33.4     c-0.8-1.2-0.9-1.3-1.7-1.3v-0.3h3.7v0.3c-0.8,0-0.9,0.1-0.9,0.3c0,0.2,0,0.2,0.4,0.8l1.3,2.1c0.3,0.5,0.5,0.9,0.6,1     c0.2-0.3,0.2-0.4,0.7-1.1l1.3-2c0.3-0.5,0.4-0.7,0.4-0.8c0-0.3-0.1-0.3-0.9-0.3v-0.3h2.8v0.3c-0.7,0-0.7,0.1-1.6,1.3l-2.2,3.4     v2.6c0,1.1,0,1.3,0.1,1.4c0.1,0.2,0.2,0.2,1.1,0.2v0.3h-3.9V41c0.9,0,1,0,1.1-0.2c0.1-0.1,0.1-0.3,0.1-1.4v-2.4L182.1,33.4z"/>
			<path clip-path="url(#SVGID_00000183208494163292547580000016697868211460937605_)" fill="#ffffff" d="M203.7,36.2     c0,2.6,1.5,4.6,3.4,4.6c1.8,0,3.1-1.6,3.1-4c0-1.2-0.3-2.3-0.9-3.2c-0.6-0.9-1.4-1.3-2.5-1.3C205,32.3,203.7,33.9,203.7,36.2      M209.8,32.5c1.2,0.9,1.9,2.3,1.9,4.1c0,2.9-2,5-4.8,5c-2.8,0-4.8-2.1-4.8-5c0-3,2-5,4.9-5C208,31.6,209,31.9,209.8,32.5"/>
			<path clip-path="url(#SVGID_00000183208494163292547580000016697868211460937605_)" fill="#ffffff" d="M222.5,33.9l-0.3,0     c-0.4-1.4-0.7-1.6-2.4-1.6h-1.7v3.7h1.4c1.3,0,1.5-0.2,1.6-1.3h0.3v3.1h-0.3c-0.2-1.2-0.2-1.3-1.7-1.3h-1.3v2.8     c0,1.1,0,1.3,0.1,1.4c0.1,0.2,0.3,0.2,1,0.2v0.3h-3.6V41c0.7,0,0.8,0,1-0.2c0.1-0.1,0.1-0.3,0.1-1.4v-5.7c0-1.1,0-1.3-0.1-1.4     c-0.1-0.2-0.3-0.2-1-0.2v-0.3h6.8L222.5,33.9z"/>
			<path clip-path="url(#SVGID_00000183208494163292547580000016697868211460937605_)" fill="#ffffff" d="M83.6,53.2     c-0.3-1.2-0.6-1.8-1.2-2.4c-0.8-0.9-2-1.4-3.2-1.4c-1.8,0-2.9,1-2.9,2.5c0,1.1,0.6,1.9,2.4,2.8l2.9,1.6c2.6,1.4,3.6,2.8,3.6,4.9     c0,3.1-2.4,5.3-5.7,5.3c-1.1,0-1.4-0.1-3.5-0.7c-0.3-0.1-0.6-0.1-0.8-0.1c-0.4,0-0.6,0.1-1.4,0.9v-6.3h0.6     c0.7,3.1,2.5,4.8,5.1,4.8c2,0,3.4-1.3,3.4-3c0-1.4-0.7-2.1-3.2-3.5l-2.4-1.3c-2.6-1.4-3.5-2.5-3.5-4.5c0-2.6,2.1-4.5,5.1-4.5     c0.7,0,1.3,0.1,2.2,0.3c1.2,0.3,1.3,0.3,1.6,0.3c0.4,0,0.7-0.1,1.4-0.3v4.6H83.6z"/>
			<path clip-path="url(#SVGID_00000183208494163292547580000016697868211460937605_)" fill="#ffffff" d="M90.6,56.8     c0,4.7,2.8,8.4,6.2,8.4c3.4,0,5.8-3,5.8-7.4c0-2.3-0.6-4.2-1.6-5.8c-1.1-1.6-2.6-2.4-4.5-2.4C93,49.6,90.6,52.5,90.6,56.8      M101.9,49.9c2.3,1.7,3.5,4.2,3.5,7.5c0,5.3-3.7,9.1-8.8,9.1c-5.1,0-8.8-3.8-8.8-9.1c0-5.4,3.6-9.2,8.9-9.2     C98.6,48.2,100.5,48.9,101.9,49.9"/>
			<path clip-path="url(#SVGID_00000183208494163292547580000016697868211460937605_)" fill="#ffffff" d="M112.4,58.5     c0,3.1,0.1,3.8,0.7,4.7c0.7,1.1,2.2,1.8,4,1.8c1.5,0,2.8-0.5,3.6-1.4c0.7-0.8,0.9-1.8,0.9-4.1v-7.4c0-2,0-2.3-0.2-2.6     c-0.2-0.3-0.5-0.3-1.7-0.3v-0.6h5.1v0.6c-1.3,0-1.5,0.1-1.8,0.3c-0.2,0.3-0.2,0.6-0.2,2.6v7.4c0,2.8-0.3,4.2-1.2,5.2     c-1,1.2-2.9,1.8-5.4,1.8c-2.5,0-4.2-0.6-5.3-1.8c-0.9-1-1.1-2.2-1.1-5.2v-7.4c0-2,0-2.3-0.2-2.6c-0.2-0.3-0.5-0.3-1.8-0.3v-0.6     h6.6v0.6c-1.3,0-1.5,0.1-1.8,0.3c-0.2,0.3-0.2,0.6-0.2,2.6V58.5z"/>
			<path clip-path="url(#SVGID_00000183208494163292547580000016697868211460937605_)" fill="#ffffff" d="M135,62.7     c0,1.9,0,2.3,0.2,2.6c0.2,0.3,0.5,0.3,1.8,0.3v0.6h-6.6v-0.6c1.3,0,1.5-0.1,1.7-0.3c0.2-0.3,0.2-0.6,0.2-2.6v-13     c-4.2-0.1-5.2,0.5-5.6,3.4h-0.6l0.2-4.5c0.5,0,2.2,0.1,5.2,0.1h5.5c0.4,0,3.1-0.1,4-0.1l-0.2,4.5h-0.6c-0.2-3.1-0.7-3.5-4.5-3.4     H135V62.7z"/>
			<path clip-path="url(#SVGID_00000183208494163292547580000016697868211460937605_)" fill="#ffffff" d="M147.2,57.7v5     c0,2,0,2.3,0.2,2.6c0.2,0.3,0.5,0.3,1.7,0.3v0.6h-6.6v-0.6c1.3,0,1.5-0.1,1.8-0.3c0.2-0.3,0.2-0.6,0.2-2.6V52.1     c0-2,0-2.3-0.2-2.6c-0.2-0.3-0.5-0.3-1.8-0.3v-0.6h6.6v0.6c-1.3,0-1.5,0.1-1.7,0.3c-0.2,0.3-0.2,0.6-0.2,2.6v4.5h8.7v-4.5     c0-2,0-2.3-0.2-2.6c-0.2-0.3-0.5-0.3-1.7-0.3v-0.6h6.6v0.6c-1.3,0-1.5,0.1-1.8,0.3c-0.2,0.3-0.2,0.6-0.2,2.6v10.5     c0,2,0,2.3,0.2,2.6c0.2,0.3,0.5,0.3,1.8,0.3v0.6h-6.6v-0.6c1.3,0,1.5-0.1,1.7-0.3c0.2-0.3,0.2-0.6,0.2-2.6v-5H147.2z"/>
			<path clip-path="url(#SVGID_00000183208494163292547580000016697868211460937605_)" fill="#ffffff" d="M174.1,61.3     c0.1,3,0.1,3.1,0.2,3.4c0.1,0.3,0.7,0.5,2.1,0.5c2.8,0,4.8-0.8,6-2.6c1-1.3,1.4-3.1,1.4-5.1c0-2.8-1-5.2-2.8-6.6     c-1.3-1.1-3-1.5-5.3-1.5c-0.6,0-0.9,0-1.7,0.1V61.3z M171.4,52.1c0-2,0-2.3-0.2-2.6c-0.2-0.3-0.5-0.3-1.8-0.3v-0.6h7.1     c3.8,0,6.1,0.7,7.9,2.5c1.5,1.5,2.3,3.6,2.3,6.1c0,2.7-0.9,5-2.7,6.6c-1.9,1.8-4.2,2.5-7.8,2.5h-6.8v-0.6c1.3,0,1.5-0.1,1.8-0.3     c0.2-0.3,0.2-0.6,0.2-2.6V52.1z"/>
			<path clip-path="url(#SVGID_00000183208494163292547580000016697868211460937605_)" fill="#ffffff" d="M195.3,52.2l-2.7,7h5.5     L195.3,52.2z M192.1,60.2l-1.1,2.9c-0.4,1.1-0.5,1.4-0.5,1.8c0,0.5,0.3,0.6,1.5,0.7v0.6h-4.5v-0.6c1.2-0.1,1.4-0.3,2.3-2.9     l5.9-14.9h0.4l5.9,14.4c0.9,2.2,1.1,2.6,1.4,2.9c0.3,0.3,0.5,0.4,1.2,0.5v0.6h-5.9v-0.6c1,0,1.4-0.2,1.4-0.7c0-0.3,0-0.4-0.4-1.4     l-1.3-3.3H192.1z"/>
			<path clip-path="url(#SVGID_00000183208494163292547580000016697868211460937605_)" fill="#ffffff" d="M220.4,63.5     c1.6,1.8,2.2,2.1,3.3,2.1v0.6h-7.1v-0.6c1.5,0,1.8-0.1,1.8-0.4c0-0.2-0.1-0.3-1.1-1.4l-6.1-6.8l5.1-5.2c1.2-1.2,1.6-1.7,1.6-2     c0-0.4-0.3-0.6-1.6-0.6v-0.6h5.8v0.6c-1.5,0.1-1.9,0.4-4,2.3l-4.7,4.5L220.4,63.5z M211.2,62.7c0,2,0,2.3,0.2,2.6     c0.2,0.3,0.5,0.3,1.8,0.3v0.6h-6.6v-0.6c1.3,0,1.5-0.1,1.7-0.3c0.2-0.3,0.2-0.6,0.2-2.6V52.1c0-2,0-2.3-0.2-2.6     c-0.2-0.3-0.5-0.3-1.7-0.3v-0.6h6.6v0.6c-1.3,0-1.5,0.1-1.8,0.3c-0.2,0.3-0.2,0.6-0.2,2.6V62.7z"/>
			<path clip-path="url(#SVGID_00000183208494163292547580000016697868211460937605_)" fill="#ffffff" d="M226.5,56.8     c0,4.7,2.8,8.4,6.2,8.4c3.4,0,5.8-3,5.8-7.4c0-2.3-0.6-4.2-1.6-5.8c-1.1-1.6-2.6-2.4-4.5-2.4C228.9,49.6,226.5,52.5,226.5,56.8      M237.8,49.9c2.3,1.7,3.5,4.2,3.5,7.5c0,5.3-3.7,9.1-8.8,9.1c-5.1,0-8.8-3.8-8.8-9.1c0-5.4,3.6-9.2,8.9-9.2     C234.4,48.2,236.3,48.9,237.8,49.9"/>
			<path clip-path="url(#SVGID_00000183208494163292547580000016697868211460937605_)" fill="#ffffff" d="M251.8,62.7     c0,1.9,0,2.3,0.2,2.6c0.2,0.3,0.5,0.3,1.7,0.3v0.6h-6.6v-0.6c1.3,0,1.5-0.1,1.7-0.3c0.2-0.3,0.2-0.6,0.2-2.6v-13     c-4.2-0.1-5.2,0.5-5.6,3.4h-0.6l0.2-4.5c0.5,0,2.2,0.1,5.2,0.1h5.5c0.4,0,3.1-0.1,4-0.1l-0.2,4.5H257c-0.2-3.1-0.7-3.5-4.5-3.4     h-0.6V62.7z"/>
			<path clip-path="url(#SVGID_00000183208494163292547580000016697868211460937605_)" fill="#ffffff" d="M264.8,52.2l-2.7,7h5.5     L264.8,52.2z M261.7,60.2l-1.1,2.9c-0.4,1.1-0.5,1.4-0.5,1.8c0,0.5,0.3,0.6,1.5,0.7v0.6h-4.5v-0.6c1.2-0.1,1.3-0.3,2.3-2.9     l5.9-14.9h0.4l5.9,14.4c0.9,2.2,1.1,2.6,1.4,2.9c0.3,0.3,0.5,0.4,1.2,0.5v0.6h-5.9v-0.6c1,0,1.4-0.2,1.4-0.7c0-0.3,0-0.4-0.4-1.4     l-1.3-3.3H261.7z"/>
		</g>
	</g>
</g>
</svg>