<?xml version="1.0" standalone="no"?>
<!DOCTYPE svg PUBLIC "-//W3C//DTD SVG 20010904//EN"
 "http://www.w3.org/TR/2001/REC-SVG-20010904/DTD/svg10.dtd">
<svg version="1.0" xmlns="http://www.w3.org/2000/svg"
 width="3008.000000pt" height="1909.000000pt" viewBox="0 0 3008.000000 1909.000000"
 preserveAspectRatio="xMidYMid meet">

<g transform="translate(0.000000,1909.000000) scale(0.100000,-0.100000)"
fill="#000000" stroke="none">
<path d="M11322 18377 l-712 -712 2 -979 3 -980 1162 -945 1163 -946 0 -1367
0 -1368 810 0 810 0 2 706 3 706 488 -396 487 -397 0 -470 0 -469 -1657 2
-1658 3 -3 473 -2 472 -805 0 -805 0 0 -562 0 -562 148 -151 c81 -82 403 -408
715 -722 l568 -573 450 0 449 0 0 -1045 0 -1045 983 0 c541 0 1685 -3 2543 -6
l1559 -6 728 722 727 722 0 3407 0 3408 -724 716 -724 717 -2546 0 -2546 0 -2
-411 -3 -412 -357 292 -358 292 0 490 0 489 1660 0 1660 0 0 -210 0 -210 810
0 810 0 0 303 0 304 -724 716 -724 717 -1839 0 -1838 0 -713 -713z m6538
-6492 l0 -3225 -1650 0 -1650 0 0 240 0 240 572 0 573 0 727 727 728 728 0
935 -1 935 -1299 1059 -1300 1059 0 263 0 264 1650 0 1650 0 0 -3225z"/>
<path d="M15673 5255 c-123 -34 -210 -100 -259 -197 -22 -42 -28 -71 -32 -139
-6 -111 13 -170 75 -239 58 -65 121 -108 303 -205 192 -103 261 -148 304 -195
98 -109 58 -281 -84 -356 -28 -15 -57 -19 -145 -19 -103 0 -114 2 -170 32
-100 52 -167 136 -214 271 -24 68 -30 77 -52 77 l-24 0 -3 -257 c-1 -142 2
-258 6 -258 5 0 17 10 28 21 27 30 79 50 112 43 15 -3 72 -20 127 -37 324
-100 612 51 658 344 20 132 -18 247 -114 339 -59 57 -122 97 -346 219 -227
123 -269 169 -261 286 5 80 38 127 116 162 47 22 64 25 131 21 155 -9 264 -89
318 -234 25 -67 30 -74 56 -74 l27 0 0 191 0 191 -22 -7 c-58 -18 -144 -16
-223 5 -105 28 -243 35 -312 15z"/>
<path d="M23830 5259 c-230 -38 -420 -175 -515 -374 -53 -110 -74 -191 -82
-316 -8 -122 9 -239 51 -349 41 -109 89 -181 179 -267 85 -80 159 -122 282
-158 118 -35 289 -38 406 -7 328 88 530 361 531 721 0 164 -26 275 -94 404
-40 75 -170 208 -248 254 -146 86 -337 120 -510 92z m312 -147 c129 -63 242
-230 284 -417 24 -106 24 -312 0 -410 -36 -149 -124 -280 -229 -343 -236 -142
-513 -34 -648 253 -62 133 -73 188 -73 370 -1 150 1 165 27 240 46 130 101
208 191 270 90 61 143 76 271 73 102 -3 116 -6 177 -36z"/>
<path d="M3780 5221 c0 -28 2 -29 60 -33 102 -7 94 37 101 -556 6 -577 8 -590
75 -689 91 -132 304 -199 553 -174 204 21 329 89 392 212 50 99 52 122 58 661
7 582 -1 539 101 546 58 4 60 5 60 33 l0 29 -210 0 -210 0 0 -29 c0 -27 2 -28
61 -34 102 -9 94 34 94 -530 0 -557 -1 -565 -74 -649 -60 -67 -141 -100 -262
-106 -186 -9 -314 49 -375 170 -36 70 -44 183 -43 623 0 365 5 455 27 477 5 5
37 12 71 15 59 6 61 7 61 34 l0 29 -270 0 -270 0 0 -29z"/>
<path d="M5877 5244 c-4 -4 -7 -17 -7 -30 0 -18 7 -23 48 -29 39 -6 55 -15 95
-57 l47 -51 -2 -599 c-3 -687 6 -628 -100 -628 -58 0 -58 0 -58 -30 l0 -30
210 0 210 0 0 30 c0 30 0 30 -57 30 -32 0 -64 4 -71 8 -28 18 -32 88 -32 596
l0 520 53 -70 c135 -181 921 -1144 933 -1144 11 0 14 125 16 695 3 794 -6 726
98 733 58 4 60 5 60 33 l0 29 -210 0 -210 0 0 -29 c0 -28 2 -29 60 -33 102 -7
95 32 98 -516 l2 -477 -24 30 c-14 17 -204 253 -424 525 l-398 495 -165 3
c-91 1 -168 -1 -172 -4z"/>
<path d="M8097 5243 c-4 -3 -7 -17 -7 -30 0 -21 5 -23 44 -23 49 0 96 -15 108
-33 4 -7 8 -296 8 -643 0 -722 9 -661 -95 -666 -57 -3 -60 -4 -63 -30 l-3 -28
276 0 276 0 -3 28 c-3 26 -6 27 -65 30 -51 2 -65 7 -78 25 -13 19 -15 102 -15
643 0 720 -8 664 99 672 60 4 62 5 59 31 l-3 26 -266 3 c-146 1 -268 -1 -272
-5z"/>
<path d="M9327 5243 c-4 -3 -7 -16 -7 -28 0 -18 9 -25 46 -34 25 -6 56 -23 68
-36 13 -14 148 -323 301 -687 153 -365 283 -673 288 -686 7 -15 18 -22 30 -20
16 2 68 123 271 623 335 825 321 797 402 810 42 6 45 8 42 33 l-3 27 -197 3
-198 2 0 -29 c0 -27 3 -30 51 -36 60 -8 93 -35 84 -68 -14 -53 -389 -997 -396
-997 -4 0 -12 13 -17 29 -6 16 -93 233 -195 483 -102 249 -187 465 -191 479
-9 40 12 58 82 71 59 11 62 13 62 40 l0 28 -258 0 c-142 0 -262 -3 -265 -7z"/>
<path d="M11447 5243 c-4 -3 -7 -16 -7 -28 0 -20 6 -23 61 -27 107 -8 99 48
99 -672 0 -521 -2 -625 -14 -642 -11 -14 -30 -20 -78 -24 -60 -5 -63 -6 -66
-33 l-3 -27 527 2 528 3 43 165 c24 91 41 171 38 178 -2 6 -13 12 -22 12 -13
0 -27 -20 -48 -67 -16 -37 -45 -85 -64 -106 -72 -80 -145 -96 -433 -97 l-188
0 0 310 0 310 170 0 c235 0 255 -10 274 -142 6 -42 10 -48 32 -48 l24 0 0 240
0 240 -24 0 c-21 0 -25 -6 -31 -49 -3 -26 -15 -63 -26 -80 -32 -52 -67 -61
-254 -61 l-165 0 0 276 0 276 213 -4 c175 -3 219 -7 254 -22 56 -24 97 -71
124 -146 18 -50 26 -60 45 -60 12 0 24 3 27 8 2 4 -2 77 -7 162 l-11 155 -506
3 c-278 1 -509 -1 -512 -5z"/>
<path d="M13357 5243 c-4 -3 -7 -16 -7 -29 0 -20 6 -22 66 -26 50 -3 70 -9 80
-23 21 -28 21 -1262 0 -1291 -11 -14 -30 -20 -78 -24 -60 -5 -63 -6 -66 -32
l-3 -28 276 0 276 0 -3 28 c-3 26 -6 27 -66 32 -48 4 -67 10 -78 24 -11 16
-14 70 -14 273 l0 253 58 0 c35 0 70 -7 91 -18 24 -12 98 -102 251 -302 l217
-285 166 -3 167 -2 0 30 c0 27 -3 30 -32 30 -53 0 -112 36 -161 98 -24 31
-107 140 -183 242 -76 102 -155 203 -176 226 l-37 41 57 17 c113 35 197 109
250 223 24 51 27 69 26 158 -1 113 -15 163 -67 231 -64 85 -165 134 -317 154
-84 11 -683 14 -693 3z m622 -112 c58 -18 120 -56 149 -91 7 -8 25 -37 40 -65
24 -46 27 -60 27 -161 0 -103 -2 -114 -30 -169 -35 -69 -101 -124 -179 -150
-58 -19 -181 -31 -220 -21 l-26 6 0 335 0 335 89 0 c60 0 110 -6 150 -19z"/>
<path d="M17100 5221 c0 -27 2 -28 61 -34 37 -3 68 -12 78 -22 14 -14 16 -78
19 -608 2 -326 0 -611 -3 -634 -9 -60 -25 -73 -96 -73 -59 0 -59 0 -59 -30 l0
-30 270 0 270 0 0 30 c0 30 0 30 -59 30 -68 0 -87 13 -96 63 -3 18 -5 303 -3
634 3 690 -5 634 98 641 58 4 60 5 60 33 l0 29 -270 0 -270 0 0 -29z"/>
<path d="M18356 5205 c-3 -22 -8 -106 -11 -187 l-7 -148 29 0 c28 0 30 3 41
62 30 159 128 218 365 218 l77 0 -2 -636 c-3 -728 6 -664 -100 -664 -58 0 -58
0 -58 -30 l0 -30 270 0 270 0 0 30 c0 30 0 30 -58 30 -105 0 -97 -56 -100 671
l-3 629 110 0 c235 0 285 -37 307 -222 6 -55 8 -58 34 -58 l28 0 7 138 c3 75
7 158 8 184 l2 48 -602 2 -603 3 -4 -40z"/>
<path d="M19960 5221 c0 -27 4 -30 43 -36 86 -14 93 -22 358 -417 l219 -327 0
-253 c0 -144 -5 -269 -11 -290 -11 -42 -20 -46 -114 -50 -57 -3 -60 -4 -63
-30 l-3 -28 301 0 301 0 -3 28 c-3 26 -6 27 -63 30 -89 3 -102 8 -114 43 -7
20 -11 134 -11 311 l0 279 220 328 c121 181 232 339 246 350 15 12 44 24 66
27 34 6 38 10 38 35 l0 29 -210 0 -210 0 0 -28 c0 -27 3 -29 62 -38 77 -11 89
-28 64 -81 -24 -52 -327 -533 -335 -533 -3 0 -17 19 -30 43 -13 23 -89 145
-169 271 -80 126 -147 237 -150 248 -7 30 15 46 79 53 58 7 60 8 57 34 l-3 26
-282 3 -283 2 0 -29z"/>
<path d="M25267 5243 c-4 -3 -7 -16 -7 -28 0 -20 6 -23 61 -27 107 -8 99 48
99 -672 0 -521 -2 -625 -14 -642 -11 -14 -30 -20 -78 -24 -60 -5 -63 -6 -66
-32 l-3 -28 276 0 276 0 -3 28 c-3 26 -6 27 -64 30 -101 5 -96 -10 -102 347
l-5 305 172 0 c236 0 256 -10 276 -142 7 -45 9 -48 36 -48 l29 0 0 240 0 240
-29 0 c-27 0 -29 -3 -36 -47 -19 -128 -48 -143 -280 -143 l-165 0 0 276 0 276
213 -4 c192 -3 216 -5 259 -25 53 -24 88 -70 117 -154 16 -45 24 -55 45 -57
l26 -3 0 103 c0 57 -3 133 -7 171 l-6 67 -507 0 c-279 0 -510 -3 -513 -7z"/>
<path d="M17850 1663 c-249 -626 -475 -1189 -501 -1252 -83 -197 -134 -252
-244 -268 l-45 -6 0 -48 0 -49 340 0 340 0 0 48 0 49 -82 11 c-136 20 -162 51
-135 160 9 37 65 193 125 347 l108 280 478 0 477 0 121 -310 c128 -329 145
-393 114 -439 -18 -29 -70 -46 -138 -46 l-48 0 0 -50 0 -50 445 0 445 0 0 49
0 48 -59 12 c-86 17 -129 53 -179 148 -65 126 -157 344 -612 1460 l-425 1043
-36 0 -35 0 -454 -1137z m786 -535 c5 -17 -19 -18 -401 -18 -383 0 -407 1
-403 18 6 21 388 994 396 1006 4 7 378 -917 408 -1006z"/>
<path d="M28264 1603 c-262 -659 -496 -1236 -519 -1283 -63 -126 -106 -164
-200 -177 l-45 -6 0 -48 0 -49 340 0 340 0 0 48 0 48 -80 12 c-137 20 -164 47
-143 147 6 27 62 184 124 347 l114 298 476 0 476 0 106 -272 c136 -348 147
-380 147 -426 0 -70 -47 -102 -152 -102 l-48 0 0 -50 0 -50 440 0 440 0 0 48
0 49 -54 12 c-67 15 -112 44 -148 96 -45 67 -162 343 -623 1470 l-441 1080
-36 3 -36 3 -478 -1198z m615 17 c110 -277 199 -506 197 -507 -2 -2 -185 -2
-408 -1 l-405 3 201 512 c111 281 204 508 208 505 4 -4 97 -234 207 -512z"/>
<path d="M575 2725 c-263 -58 -454 -215 -533 -437 -20 -58 -26 -97 -30 -193
-7 -197 34 -316 151 -442 105 -111 202 -175 552 -363 372 -199 466 -259 553
-354 74 -81 95 -144 90 -272 -3 -92 -6 -106 -41 -176 -82 -168 -240 -252 -467
-251 -356 2 -594 201 -723 603 l-34 105 -46 3 -47 3 0 -477 0 -477 43 37 c23
20 62 48 87 64 64 38 121 34 296 -21 231 -73 272 -80 457 -74 123 3 178 10
227 25 251 77 412 205 515 411 56 112 77 205 78 351 2 219 -49 347 -197 496
-116 116 -175 155 -546 359 -352 193 -417 234 -487 308 -83 88 -98 124 -98
242 0 87 3 107 26 156 50 106 146 177 278 205 178 37 386 -12 539 -127 93 -70
171 -196 223 -356 l23 -73 48 0 48 0 0 348 0 349 -57 -20 c-104 -36 -189 -34
-353 6 -80 20 -174 41 -210 46 -88 15 -291 12 -365 -4z"/>
<path d="M3175 2724 c-417 -74 -741 -303 -924 -654 -60 -116 -104 -238 -133
-373 -19 -88 -22 -133 -23 -327 0 -249 13 -338 77 -519 156 -443 529 -755 997
-835 121 -21 365 -21 489 -1 464 75 838 385 997 825 56 157 76 271 82 470 9
311 -31 511 -150 744 -180 353 -533 605 -939 671 -116 19 -365 18 -473 -1z
m329 -194 c179 -21 327 -91 451 -214 158 -155 272 -386 327 -661 30 -148 33
-510 5 -647 -69 -341 -236 -592 -477 -717 -120 -63 -213 -85 -355 -85 -82 0
-140 6 -183 18 -351 95 -622 434 -722 901 -31 143 -39 422 -16 565 63 401 279
694 590 801 127 44 236 55 380 39z"/>
<path d="M23625 2734 c-147 -22 -333 -77 -439 -131 -171 -86 -362 -253 -463
-403 -172 -257 -255 -569 -240 -906 28 -630 397 -1105 975 -1256 105 -28 136
-31 307 -35 208 -6 295 4 460 52 387 112 692 408 829 803 61 176 80 299 80
512 0 266 -37 444 -134 647 -65 137 -137 239 -241 344 -168 168 -375 283 -623
346 -88 22 -126 26 -291 28 -104 2 -203 1 -220 -1z m275 -204 c172 -21 308
-83 426 -193 190 -178 313 -434 365 -762 19 -119 17 -419 -4 -535 -87 -477
-357 -780 -741 -831 -297 -39 -577 99 -779 383 -309 434 -342 1142 -73 1558
181 280 478 420 806 380z"/>
<path d="M5090 2651 l0 -48 103 -5 c119 -6 150 -18 174 -67 17 -34 18 -96 24
-931 5 -792 7 -905 23 -985 36 -189 83 -282 196 -388 107 -101 233 -162 420
-203 123 -27 546 -28 668 -1 205 45 334 109 443 218 112 110 164 226 200 444
8 48 14 349 18 945 5 734 8 880 20 903 23 44 64 60 174 65 l97 5 0 48 0 49
-385 0 -385 0 0 -49 0 -48 105 -5 c85 -4 111 -9 133 -25 59 -44 57 -9 60 -843
4 -940 -3 -1047 -76 -1200 -34 -70 -130 -166 -207 -207 -213 -111 -543 -117
-769 -14 -138 63 -255 191 -291 314 -38 135 -40 180 -40 1037 0 780 1 837 18
867 29 55 57 66 173 71 l104 5 0 48 0 49 -500 0 -500 0 0 -49z"/>
<path d="M7866 2625 c-7 -91 -26 -497 -26 -564 l0 -52 47 3 47 3 16 80 c69
342 220 435 706 435 l114 0 -2 -1153 c-3 -1078 -4 -1155 -20 -1180 -28 -41
-55 -50 -165 -55 l-103 -5 0 -48 0 -49 495 0 495 0 0 49 0 48 -105 5 c-120 5
-151 20 -172 79 -9 26 -12 317 -12 1172 l-1 1137 183 0 c351 -1 457 -37 520
-178 24 -54 53 -196 59 -297 l3 -40 47 -3 c43 -3 48 -1 52 20 3 13 10 131 16
263 6 132 13 276 16 320 l6 80 -1105 0 -1106 0 -5 -70z"/>
<path d="M10310 2651 l0 -48 104 -5 c119 -5 148 -18 174 -76 16 -34 17 -133
17 -1152 0 -1019 -1 -1118 -17 -1152 -27 -59 -57 -72 -175 -76 l-103 -4 0 -49
0 -49 495 0 495 0 0 49 0 48 -102 5 c-115 5 -140 14 -165 61 -16 29 -18 79
-21 575 l-3 542 657 0 657 0 -6 -534 c-6 -579 -7 -586 -62 -622 -19 -13 -55
-19 -131 -22 l-104 -5 0 -48 0 -49 495 0 495 0 0 49 0 48 -102 5 c-115 5 -140
14 -165 61 -17 30 -18 102 -18 1162 0 943 2 1135 14 1163 20 48 60 64 174 70
l97 5 0 48 0 49 -495 0 -495 0 0 -49 0 -48 105 -5 c85 -4 111 -9 133 -25 50
-37 53 -60 59 -590 l6 -493 -657 0 -657 0 3 508 c3 555 3 548 62 579 20 10 67
18 129 21 l97 5 0 48 0 49 -495 0 -495 0 0 -49z"/>
<path d="M14350 2652 l0 -49 104 -5 c116 -6 138 -15 163 -61 17 -30 18 -103
18 -1172 0 -1070 -1 -1143 -17 -1168 -28 -41 -55 -50 -165 -55 l-103 -5 0 -49
0 -49 663 4 c704 5 727 6 937 58 431 107 767 407 909 812 61 173 75 269 76
502 0 166 -4 227 -18 294 -60 279 -150 447 -336 631 -156 154 -307 237 -538
296 -214 54 -256 57 -1000 61 l-693 4 0 -49z m1225 -107 c271 -41 456 -133
623 -310 218 -232 323 -556 309 -954 -8 -230 -44 -388 -128 -555 -125 -249
-328 -411 -604 -481 -201 -51 -574 -57 -663 -11 -59 30 -57 -17 -60 1198 -3
1065 -2 1117 15 1121 46 12 414 6 508 -8z"/>
<path d="M19920 2651 l0 -48 104 -5 c111 -5 143 -17 168 -60 10 -18 13 -254
13 -1168 0 -1074 -1 -1148 -17 -1173 -28 -41 -55 -50 -165 -55 l-103 -5 0 -48
0 -49 495 0 495 0 0 49 0 48 -102 5 c-111 5 -138 14 -166 55 -16 25 -17 99
-17 1173 0 1074 1 1148 17 1173 28 41 55 50 166 55 l102 5 0 48 0 49 -495 0
-495 0 0 -49z"/>
<path d="M21400 2651 l0 -48 83 -6 c102 -7 134 -19 148 -54 24 -64 -10 -104
-560 -655 l-445 -448 30 -32 c47 -50 963 -1076 1007 -1128 29 -34 37 -52 35
-75 -4 -42 -38 -55 -163 -62 l-105 -6 0 -49 0 -48 535 0 535 0 0 49 0 48 -58
6 c-78 7 -152 44 -248 126 -77 66 -1209 1302 -1209 1321 0 9 626 607 781 746
186 167 299 233 434 254 l80 12 0 49 0 49 -440 0 -440 0 0 -49z"/>
<path d="M25410 2660 c0 -19 -7 -169 -15 -333 -8 -164 -13 -303 -10 -308 4 -5
25 -9 49 -9 l43 0 21 101 c51 244 152 351 372 394 48 9 165 19 268 22 l183 6
-3 -1139 c-3 -1038 -4 -1142 -20 -1176 -27 -59 -57 -72 -175 -76 l-103 -4 0
-49 0 -49 495 0 495 0 0 49 0 48 -103 5 c-112 5 -143 17 -168 66 -12 23 -14
213 -17 1176 l-3 1148 233 -5 c293 -6 354 -21 430 -105 57 -63 80 -140 103
-354 l6 -58 45 0 c27 0 46 5 49 13 5 13 35 551 35 625 l0 47 -1105 0 -1105 0
0 -35z"/>
</g>
</svg>
